{
  "accessors": [
    {
      "bufferView": 2,
      "componentType": 5126,
      "count": 37308,
      "max": [
        0.03313589096069336,
        0.0018235461320728064,
        0.025410642847418785
      ],
      "min": [
        -0.033385321497917175,
        -0.012848785147070885,
        -0.01146634016185999
      ],
      "type": "VEC3"
    },
    {
      "bufferView": 2,
      "byteOffset": 447696,
      "componentType": 5126,
      "count": 37308,
      "max": [
        0.9999997019767761,
        0.9999995827674866,
        0.9999900460243225
      ],
      "min": [
        -0.9999979138374329,
        -1.0,
        -1.0
      ],
      "type": "VEC3"
    },
    {
      "bufferView": 3,
      "componentType": 5126,
      "count": 37308,
      "max": [
        0.9995297789573669,
        0.9999998807907104,
        0.9999998807907104,
        1.0
      ],
      "min": [
        -0.9893049597740173,
        -0.9999995231628418,
        -1.0,
        -1.0
      ],
      "type": "VEC4"
    },
    {
      "bufferView": 1,
      "componentType": 5126,
      "count": 37308,
      "max": [
        0.9997469782829285,
        0.9831539988517761
      ],
      "min": [
        0.00024399999529123306,
        0.00024399999529123306
      ],
      "type": "VEC2"
    },
    {
      "bufferView": 0,
      "componentType": 5125,
      "count": 149982,
      "type": "SCALAR"
    }
  ],
  "asset": {
    "extras": {
      "author": "3DScanX (https://sketchfab.com/3dscanx)",
      "license": "COPYRIGHT TO 3DScanX",
      "source": "https://sketchfab.com/3d-models/3d-scan-of-a-small-dc-dc-converter-be4f0e6fcd4d4cf19e7e1d0eb01cd7c1",
      "title": "3D Scan of a small DC-DC Converter"
    },
    "generator": "Sketchfab-12.68.0",
    "version": "2.0"
  },
  "bufferViews": [
    {
      "buffer": 0,
      "byteLength": 599928,
      "name": "floatBufferViews",
      "target": 34963
    },
    {
      "buffer": 0,
      "byteLength": 298464,
      "byteOffset": 599928,
      "byteStride": 8,
      "name": "floatBufferViews",
      "target": 34962
    },
    {
      "buffer": 0,
      "byteLength": 895392,
      "byteOffset": 898392,
      "byteStride": 12,
      "name": "floatBufferViews",
      "target": 34962
    },
    {
      "buffer": 0,
      "byteLength": 596928,
      "byteOffset": 1793784,
      "byteStride": 16,
      "name": "floatBufferViews",
      "target": 34962
    }
  ],
  "buffers": [
    {
      "byteLength": 2390712,
      "uri": "scene.bin"
    }
  ],
  "images": [
    {
      "uri": "textures/DC-DC_Converter_02_Final_baseColor.jpeg"
    },
    {
      "uri": "textures/DC-DC_Converter_02_Final_metallicRoughness.png"
    },
    {
      "uri": "textures/DC-DC_Converter_02_Final_normal.jpeg"
    }
  ],
  "materials": [
    {
      "doubleSided": true,
      "name": "DC-DC_Converter_02_Final",
      "normalTexture": {
        "index": 2
      },
      "pbrMetallicRoughness": {
        "baseColorTexture": {
          "index": 0
        },
        "metallicFactor": 0.317879053195435,
        "metallicRoughnessTexture": {
          "index": 1
        }
      }
    }
  ],
  "meshes": [
    {
      "name": "Object_0",
      "primitives": [
        {
          "attributes": {
            "NORMAL": 1,
            "POSITION": 0,
            "TANGENT": 2,
            "TEXCOORD_0": 3
          },
          "indices": 4,
          "material": 0,
          "mode": 4
        }
      ]
    }
  ],
  "nodes": [
    {
      "children": [
        1
      ],
      "matrix": [
        1.0,
        0.0,
        0.0,
        0.0,
        0.0,
        -0.9999871253967285,
        -0.005079197231680377,
        0.0,
        0.0,
        0.005079197231680377,
        -0.9999871253967285,
        0.0,
        0.0,
        0.001424211426638064,
        0.012456721626222134,
        1.0
      ],
      "name": "Sketchfab_model"
    },
    {
      "children": [
        2
      ],
      "name": "DC-DC_Converter_02_Final.obj.cleaner.materialmerger.gles"
    },
    {
      "mesh": 0,
      "name": "Object_2"
    }
  ],
  "samplers": [
    {
      "magFilter": 9729,
      "minFilter": 9987,
      "wrapS": 10497,
      "wrapT": 10497
    }
  ],
  "scene": 0,
  "scenes": [
    {
      "name": "Sketchfab_Scene",
      "nodes": [
        0
      ]
    }
  ],
  "textures": [
    {
      "sampler": 0,
      "source": 0
    },
    {
      "sampler": 0,
      "source": 1
    },
    {
      "sampler": 0,
      "source": 2
    }
  ]
}
